# xmcd
#
# Track frame offsets: 
#        150
#        16507
#        36408
#        51210
#        69303
#        79858
#        92098
#        109230
#        124322
#        128081
#        139619
#
# Disc length: 2081 seconds
#
# Revision: 0
# Processed by: cddbd v1.5.1PL0 Copyright (c) Steve Scherf et al.
# Submitted via: ExactAudioCopy v0.95a5
#
DISCID=8f081f0b
DTITLE=Rod Picott - Girl From Arkansas
DYEAR=2004
DGENRE=Folk
TTITLE0=Girl From Arkansas
TTITLE1=Wrecking Ball
TTITLE2=No Love In This Town
TTITLE3=That's Where My Baby Lives
TTITLE4=Gun Shy Dog
TTITLE5=Big Mean Men
TTITLE6=Done To The Bone
TTITLE7=Kerosene
TTITLE8=Lullaby
TTITLE9=Gone
TTITLE10=The Last Goodbye
EXTD=
EXTT0=
EXTT1=
EXTT2=
EXTT3=
EXTT4=
EXTT5=
EXTT6=
EXTT7=
EXTT8=
EXTT9=
EXTT10=
PLAYORDER=
